<mxfile host="Electron" modified="2024-02-04T19:29:22.405Z" agent="Mozilla/5.0 (Macintosh; Intel Mac OS X 10_15_7) AppleWebKit/537.36 (KHTML, like Gecko) draw.io/22.0.3 Chrome/114.0.5735.289 Electron/25.8.4 Safari/537.36" etag="NeqdiEyMZfp7pfKXgqZb" version="22.0.3" type="device">
  <diagram name="Page-1" id="2YBvvXClWsGukQMizWep">
    <mxGraphModel dx="1837" dy="922" grid="1" gridSize="10" guides="1" tooltips="1" connect="1" arrows="1" fold="1" page="1" pageScale="1" pageWidth="850" pageHeight="1100" math="0" shadow="0">
      <root>
        <mxCell id="0" />
        <mxCell id="1" parent="0" />
        <mxCell id="AlYkQCBO4MxIM3iHn8Bt-7" style="edgeStyle=orthogonalEdgeStyle;rounded=0;orthogonalLoop=1;jettySize=auto;html=1;exitX=1;exitY=0.5;exitDx=0;exitDy=0;entryX=0;entryY=0.5;entryDx=0;entryDy=0;" edge="1" parent="1" source="AlYkQCBO4MxIM3iHn8Bt-1" target="AlYkQCBO4MxIM3iHn8Bt-2">
          <mxGeometry relative="1" as="geometry" />
        </mxCell>
        <mxCell id="AlYkQCBO4MxIM3iHn8Bt-1" value="Сбор данных" style="rounded=0;whiteSpace=wrap;html=1;" vertex="1" parent="1">
          <mxGeometry x="40" y="40" width="120" height="60" as="geometry" />
        </mxCell>
        <mxCell id="AlYkQCBO4MxIM3iHn8Bt-2" value="Обработка данных, очистка от &quot;мусора&quot;" style="rounded=0;whiteSpace=wrap;html=1;" vertex="1" parent="1">
          <mxGeometry x="200" y="40" width="120" height="60" as="geometry" />
        </mxCell>
        <mxCell id="AlYkQCBO4MxIM3iHn8Bt-3" value="Обучение небольшой нейросети для проверки качества данных" style="rounded=0;whiteSpace=wrap;html=1;" vertex="1" parent="1">
          <mxGeometry x="360" y="40" width="120" height="80" as="geometry" />
        </mxCell>
        <mxCell id="AlYkQCBO4MxIM3iHn8Bt-4" value="Обучение итоговой модели" style="rounded=0;whiteSpace=wrap;html=1;" vertex="1" parent="1">
          <mxGeometry x="520" y="40" width="120" height="60" as="geometry" />
        </mxCell>
        <mxCell id="AlYkQCBO4MxIM3iHn8Bt-5" value="Анализ итоговых метрик модели на тестовых данных и принятие решений по доработке и улучшениям" style="rounded=0;whiteSpace=wrap;html=1;" vertex="1" parent="1">
          <mxGeometry x="680" y="40" width="120" height="100" as="geometry" />
        </mxCell>
        <mxCell id="AlYkQCBO4MxIM3iHn8Bt-8" style="edgeStyle=orthogonalEdgeStyle;rounded=0;orthogonalLoop=1;jettySize=auto;html=1;exitX=1;exitY=0.5;exitDx=0;exitDy=0;entryX=-0.008;entryY=0.372;entryDx=0;entryDy=0;entryPerimeter=0;" edge="1" parent="1" source="AlYkQCBO4MxIM3iHn8Bt-2" target="AlYkQCBO4MxIM3iHn8Bt-3">
          <mxGeometry relative="1" as="geometry" />
        </mxCell>
        <mxCell id="AlYkQCBO4MxIM3iHn8Bt-10" style="edgeStyle=orthogonalEdgeStyle;rounded=0;orthogonalLoop=1;jettySize=auto;html=1;exitX=1;exitY=0.25;exitDx=0;exitDy=0;entryX=0;entryY=0.5;entryDx=0;entryDy=0;" edge="1" parent="1" source="AlYkQCBO4MxIM3iHn8Bt-3" target="AlYkQCBO4MxIM3iHn8Bt-4">
          <mxGeometry relative="1" as="geometry">
            <Array as="points">
              <mxPoint x="480" y="70" />
            </Array>
          </mxGeometry>
        </mxCell>
        <mxCell id="AlYkQCBO4MxIM3iHn8Bt-11" style="edgeStyle=orthogonalEdgeStyle;rounded=0;orthogonalLoop=1;jettySize=auto;html=1;exitX=1;exitY=0.5;exitDx=0;exitDy=0;entryX=-0.024;entryY=0.304;entryDx=0;entryDy=0;entryPerimeter=0;" edge="1" parent="1" source="AlYkQCBO4MxIM3iHn8Bt-4" target="AlYkQCBO4MxIM3iHn8Bt-5">
          <mxGeometry relative="1" as="geometry" />
        </mxCell>
      </root>
    </mxGraphModel>
  </diagram>
</mxfile>
